<mxfile host="app.diagrams.net" modified="2023-10-29T22:12:07.861Z" agent="Mozilla/5.0 (Windows NT 10.0; Win64; x64; rv:109.0) Gecko/20100101 Firefox/119.0" etag="7uo6d1ES3nVtqfz4IuLs" version="22.0.8" type="github">
  <diagram name="Page-1" id="2ftNx5encFUPUvh2eLUS">
    <mxGraphModel dx="783" dy="503" grid="1" gridSize="10" guides="1" tooltips="1" connect="1" arrows="1" fold="1" page="1" pageScale="1" pageWidth="850" pageHeight="1100" math="0" shadow="0">
      <root>
        <mxCell id="0" />
        <mxCell id="1" parent="0" />
        <mxCell id="fu_VMSiZrguRrlnfRBKY-4" value="" style="edgeStyle=orthogonalEdgeStyle;rounded=0;orthogonalLoop=1;jettySize=auto;html=1;" edge="1" parent="1" source="fu_VMSiZrguRrlnfRBKY-2" target="fu_VMSiZrguRrlnfRBKY-3">
          <mxGeometry relative="1" as="geometry" />
        </mxCell>
        <mxCell id="fu_VMSiZrguRrlnfRBKY-2" value="&lt;font style=&quot;font-size: 18px;&quot;&gt;INÍCIO&lt;/font&gt;" style="ellipse;whiteSpace=wrap;html=1;aspect=fixed;fillColor=#60a917;fontColor=#ffffff;strokeColor=#2D7600;" vertex="1" parent="1">
          <mxGeometry x="220" y="130" width="80" height="80" as="geometry" />
        </mxCell>
        <mxCell id="fu_VMSiZrguRrlnfRBKY-6" value="" style="edgeStyle=orthogonalEdgeStyle;rounded=0;orthogonalLoop=1;jettySize=auto;html=1;" edge="1" parent="1" source="fu_VMSiZrguRrlnfRBKY-3" target="fu_VMSiZrguRrlnfRBKY-5">
          <mxGeometry relative="1" as="geometry" />
        </mxCell>
        <mxCell id="fu_VMSiZrguRrlnfRBKY-3" value="OBTER IMAGEM" style="whiteSpace=wrap;html=1;fillColor=#1ba1e2;fontColor=#ffffff;strokeColor=#006EAF;" vertex="1" parent="1">
          <mxGeometry x="200" y="300" width="120" height="60" as="geometry" />
        </mxCell>
        <mxCell id="fu_VMSiZrguRrlnfRBKY-8" value="" style="edgeStyle=orthogonalEdgeStyle;rounded=0;orthogonalLoop=1;jettySize=auto;html=1;" edge="1" parent="1" source="fu_VMSiZrguRrlnfRBKY-5" target="fu_VMSiZrguRrlnfRBKY-7">
          <mxGeometry relative="1" as="geometry" />
        </mxCell>
        <mxCell id="fu_VMSiZrguRrlnfRBKY-5" value="SEPARAR PLACAS DE TRÂNSITO DO RESTO DA IMAGEM" style="whiteSpace=wrap;html=1;fillColor=#1ba1e2;fontColor=#ffffff;strokeColor=#006EAF;" vertex="1" parent="1">
          <mxGeometry x="200" y="440" width="120" height="60" as="geometry" />
        </mxCell>
        <mxCell id="fu_VMSiZrguRrlnfRBKY-14" value="" style="edgeStyle=orthogonalEdgeStyle;rounded=0;orthogonalLoop=1;jettySize=auto;html=1;" edge="1" parent="1" source="fu_VMSiZrguRrlnfRBKY-7" target="fu_VMSiZrguRrlnfRBKY-13">
          <mxGeometry relative="1" as="geometry" />
        </mxCell>
        <mxCell id="fu_VMSiZrguRrlnfRBKY-7" value="SEGMENTAR AS PLACAS POR COR" style="whiteSpace=wrap;html=1;fillColor=#1ba1e2;fontColor=#ffffff;strokeColor=#006EAF;" vertex="1" parent="1">
          <mxGeometry x="200" y="580" width="120" height="60" as="geometry" />
        </mxCell>
        <mxCell id="fu_VMSiZrguRrlnfRBKY-20" value="" style="edgeStyle=orthogonalEdgeStyle;rounded=0;orthogonalLoop=1;jettySize=auto;html=1;" edge="1" parent="1" source="fu_VMSiZrguRrlnfRBKY-13" target="fu_VMSiZrguRrlnfRBKY-19">
          <mxGeometry relative="1" as="geometry" />
        </mxCell>
        <mxCell id="fu_VMSiZrguRrlnfRBKY-13" value="OBTER VALORES DE REFLETÂNCIA PARA CADA COR" style="whiteSpace=wrap;html=1;fillColor=#1ba1e2;fontColor=#ffffff;strokeColor=#006EAF;" vertex="1" parent="1">
          <mxGeometry x="400" y="580" width="120" height="60" as="geometry" />
        </mxCell>
        <mxCell id="fu_VMSiZrguRrlnfRBKY-27" value="" style="edgeStyle=orthogonalEdgeStyle;rounded=0;orthogonalLoop=1;jettySize=auto;html=1;" edge="1" parent="1" source="fu_VMSiZrguRrlnfRBKY-19" target="fu_VMSiZrguRrlnfRBKY-26">
          <mxGeometry relative="1" as="geometry" />
        </mxCell>
        <mxCell id="fu_VMSiZrguRrlnfRBKY-31" value="" style="edgeStyle=orthogonalEdgeStyle;rounded=0;orthogonalLoop=1;jettySize=auto;html=1;" edge="1" parent="1" source="fu_VMSiZrguRrlnfRBKY-19" target="fu_VMSiZrguRrlnfRBKY-30">
          <mxGeometry relative="1" as="geometry" />
        </mxCell>
        <mxCell id="fu_VMSiZrguRrlnfRBKY-19" value="&lt;font style=&quot;font-size: 12px;&quot;&gt;REFLETÂNCIA LEGAL?&lt;/font&gt;" style="rhombus;whiteSpace=wrap;html=1;fillColor=#fa6800;fontColor=#000000;strokeColor=#C73500;" vertex="1" parent="1">
          <mxGeometry x="400" y="390" width="120" height="120" as="geometry" />
        </mxCell>
        <mxCell id="fu_VMSiZrguRrlnfRBKY-36" value="" style="edgeStyle=orthogonalEdgeStyle;rounded=0;orthogonalLoop=1;jettySize=auto;html=1;" edge="1" parent="1" source="fu_VMSiZrguRrlnfRBKY-26" target="fu_VMSiZrguRrlnfRBKY-34">
          <mxGeometry relative="1" as="geometry" />
        </mxCell>
        <mxCell id="fu_VMSiZrguRrlnfRBKY-26" value="ALERTAR NO MAPA E ESCREVER NO RELATÓRIO" style="whiteSpace=wrap;html=1;fillColor=#1ba1e2;fontColor=#ffffff;strokeColor=#006EAF;" vertex="1" parent="1">
          <mxGeometry x="560" y="440" width="120" height="60" as="geometry" />
        </mxCell>
        <mxCell id="fu_VMSiZrguRrlnfRBKY-35" value="" style="edgeStyle=orthogonalEdgeStyle;rounded=0;orthogonalLoop=1;jettySize=auto;html=1;" edge="1" parent="1" source="fu_VMSiZrguRrlnfRBKY-30" target="fu_VMSiZrguRrlnfRBKY-34">
          <mxGeometry relative="1" as="geometry" />
        </mxCell>
        <mxCell id="fu_VMSiZrguRrlnfRBKY-30" value="ESCREVER NO RELATÓRIO" style="whiteSpace=wrap;html=1;fillColor=#1ba1e2;fontColor=#ffffff;strokeColor=#006EAF;" vertex="1" parent="1">
          <mxGeometry x="400" y="280" width="120" height="60" as="geometry" />
        </mxCell>
        <mxCell id="fu_VMSiZrguRrlnfRBKY-32" value="SIM" style="text;html=1;strokeColor=none;fillColor=none;align=center;verticalAlign=middle;whiteSpace=wrap;rounded=0;" vertex="1" parent="1">
          <mxGeometry x="450" y="350" width="60" height="30" as="geometry" />
        </mxCell>
        <mxCell id="fu_VMSiZrguRrlnfRBKY-33" value="NÃO" style="text;html=1;strokeColor=none;fillColor=none;align=center;verticalAlign=middle;whiteSpace=wrap;rounded=0;" vertex="1" parent="1">
          <mxGeometry x="490" y="455" width="60" height="30" as="geometry" />
        </mxCell>
        <mxCell id="fu_VMSiZrguRrlnfRBKY-34" value="FIM" style="ellipse;whiteSpace=wrap;html=1;fillColor=#60a917;strokeColor=#2D7600;fontColor=#ffffff;" vertex="1" parent="1">
          <mxGeometry x="620" y="270" width="80" height="80" as="geometry" />
        </mxCell>
      </root>
    </mxGraphModel>
  </diagram>
</mxfile>
